<?xml version="1.0" standalone="no"?>
<!DOCTYPE svg PUBLIC "-//W3C//DTD SVG 20010904//EN"
 "http://www.w3.org/TR/2001/REC-SVG-20010904/DTD/svg10.dtd">
<svg version="1.0" xmlns="http://www.w3.org/2000/svg"
 width="1280.000000pt" height="640.000000pt" viewBox="0 0 1280.000000 640.000000"
 preserveAspectRatio="xMidYMid meet">
<metadata>
Created by potrace 1.15, written by Peter Selinger 2001-2017
</metadata>
<g transform="translate(0.000000,640.000000) scale(0.100000,-0.100000)"
fill="#000000" stroke="none">
<path d="M4410 6320 c0 -12 26 -30 124 -88 106 -62 118 -81 125 -185 3 -46 11
-90 17 -98 6 -8 16 -41 22 -73 16 -81 50 -151 120 -249 84 -116 90 -131 112
-279 26 -176 37 -229 63 -312 24 -79 59 -120 164 -189 35 -23 63 -45 63 -51 0
-18 -174 3 -280 34 -121 35 -230 60 -266 60 -16 0 -43 -17 -74 -46 l-50 -47
-104 17 c-160 25 -212 21 -387 -24 -20 -6 -44 -19 -53 -29 -17 -18 -17 -22 3
-66 28 -64 27 -74 -16 -92 -29 -12 -56 -14 -118 -9 -135 11 -145 16 -271 137
-62 60 -120 109 -126 109 -7 0 -35 -11 -62 -25 -64 -32 -119 -32 -232 1 -106
30 -212 85 -311 161 -72 55 -180 100 -256 106 -28 2 -32 -1 -30 -21 2 -12 15
-40 30 -63 17 -26 28 -58 31 -93 4 -47 2 -54 -21 -69 -19 -12 -26 -27 -30 -64
-2 -26 -17 -81 -32 -120 -27 -72 -28 -73 -84 -94 -77 -29 -164 -33 -381 -16
-143 11 -203 21 -266 41 -96 31 -174 43 -174 28 0 -16 138 -140 215 -192 39
-26 75 -58 80 -71 14 -33 89 -87 133 -95 21 -4 74 -1 122 7 53 9 160 14 285
14 l200 0 85 -42 c71 -36 95 -43 144 -43 79 0 99 14 252 176 70 74 144 144
165 155 28 14 59 19 116 19 93 0 143 -12 203 -50 25 -15 65 -31 90 -35 66 -10
91 -29 245 -187 132 -134 148 -147 256 -205 134 -73 167 -85 307 -118 56 -14
151 -43 210 -66 59 -22 155 -58 214 -79 59 -22 124 -48 145 -58 21 -11 93 -32
161 -47 199 -43 319 -88 376 -141 22 -21 25 -29 15 -34 -8 -5 -113 -13 -234
-20 -345 -18 -425 -33 -425 -82 0 -20 3 -20 73 -14 170 15 326 26 382 25 l60
0 27 -44 c33 -55 57 -65 156 -65 l77 0 84 -113 c101 -136 137 -203 127 -241
-5 -21 -12 -27 -29 -24 -16 2 -31 22 -58 77 -20 41 -44 80 -54 87 -11 8 -40
14 -66 14 -69 0 -92 12 -128 68 -18 28 -39 53 -47 56 -32 12 -92 5 -199 -24
-123 -33 -154 -35 -253 -18 -63 11 -72 10 -113 -10 -24 -12 -56 -33 -71 -47
-52 -48 -32 -130 56 -239 26 -32 46 -59 44 -61 -2 -1 -54 -17 -116 -35 -86
-25 -121 -40 -145 -64 -18 -17 -52 -43 -76 -59 -56 -36 -253 -233 -410 -410
-67 -76 -139 -148 -160 -161 -21 -14 -81 -62 -133 -108 -53 -46 -108 -90 -122
-98 -25 -13 -29 -12 -52 11 -13 14 -27 41 -30 60 -6 32 -1 39 73 114 98 99
153 168 199 251 56 100 86 126 189 163 50 18 126 41 170 51 112 25 115 27 115
65 0 36 19 57 88 95 54 29 63 47 29 56 -46 11 -132 -15 -206 -63 -40 -25 -86
-49 -105 -53 -36 -8 -96 -2 -96 10 0 4 25 27 57 50 31 24 92 76 136 117 44 40
91 76 105 80 34 8 97 -13 136 -47 36 -32 66 -39 66 -16 0 23 20 30 103 36 42
3 78 9 80 15 1 5 -32 19 -74 30 -101 28 -189 65 -189 78 0 6 38 61 84 121 99
130 140 211 157 309 14 83 6 258 -13 299 -16 35 -45 36 -58 3 -13 -33 -26 -32
-25 3 0 37 -26 35 -37 -3 -11 -36 -4 -125 18 -222 l16 -73 -109 -114 c-59 -63
-137 -138 -172 -166 -36 -28 -78 -67 -95 -86 -26 -29 -41 -36 -94 -45 -71 -13
-145 -5 -167 17 -8 9 -15 34 -15 57 -1 54 -29 116 -69 150 -32 26 -36 27 -162
27 -71 0 -129 -2 -129 -5 0 -3 6 -14 13 -26 10 -17 9 -22 -7 -35 -11 -8 -27
-14 -37 -14 -22 0 -41 -24 -33 -44 4 -11 -2 -19 -20 -26 -31 -11 -33 -32 -7
-61 10 -12 23 -25 27 -31 5 -5 23 -20 39 -33 l30 -23 -28 -11 c-16 -6 -66 -11
-112 -11 l-84 0 -28 42 c-47 69 -73 83 -169 87 -61 2 -95 -1 -124 -13 -24 -10
-70 -16 -113 -16 -95 0 -133 -12 -179 -57 l-38 -37 0 54 c-1 73 -25 123 -94
192 -66 65 -108 88 -164 88 -46 0 -121 -30 -169 -66 -51 -38 -65 -32 -142 60
-117 140 -232 256 -260 263 -56 13 -92 44 -394 339 -172 168 -320 310 -330
315 -38 21 2 -27 178 -216 260 -279 389 -407 490 -489 50 -41 150 -137 224
-215 73 -78 147 -149 163 -157 18 -9 27 -19 21 -25 -5 -5 -65 -13 -133 -18
-95 -7 -142 -15 -194 -35 -38 -15 -74 -30 -80 -35 -19 -15 -118 -41 -157 -41
-43 0 -40 -3 -464 480 -143 162 -319 360 -390 440 -72 80 -261 294 -420 475
-159 182 -370 422 -469 534 l-181 203 -6 -288 c-3 -159 -7 -475 -8 -701 -1
-388 0 -413 17 -413 9 0 96 11 192 25 96 14 184 25 195 25 11 0 51 -29 89 -64
l68 -64 -21 -38 c-13 -23 -35 -107 -55 -206 -32 -162 -34 -168 -77 -223 -66
-85 -122 -160 -144 -197 -27 -44 -67 -69 -168 -103 l-86 -29 -6 -81 c-9 -101
-5 -120 21 -119 25 0 163 82 251 149 48 35 84 75 125 135 113 166 244 467 236
542 -3 36 -28 51 -28 18 0 -42 -25 -14 -34 38 -23 132 61 90 260 -130 64 -71
122 -128 129 -128 8 0 30 9 49 21 19 11 68 25 108 30 40 6 103 19 139 30 89
26 107 24 165 -12 85 -55 414 -392 414 -426 0 -18 -47 -35 -73 -27 -27 9 -37
-11 -37 -79 0 -44 4 -59 17 -64 19 -8 90 7 155 32 l46 19 63 -59 c35 -32 76
-66 92 -75 l29 -18 -54 -12 c-29 -6 -82 -14 -118 -17 -59 -5 -70 -2 -124 26
-38 21 -72 31 -101 31 -55 0 -104 17 -137 48 l-27 25 24 23 c23 21 25 30 25
119 0 63 -5 105 -14 123 -9 18 -47 46 -109 80 -52 28 -100 52 -106 52 -6 0
-34 -11 -61 -25 -27 -14 -59 -25 -70 -25 -12 0 -30 -5 -41 -10 -25 -14 -25
-71 0 -126 15 -34 27 -44 62 -56 23 -8 44 -19 46 -25 4 -11 -51 -23 -111 -23
-22 0 -47 -6 -55 -14 -9 -8 -63 -26 -121 -41 -125 -30 -201 -67 -292 -138 -65
-51 -106 -74 -238 -136 -83 -39 -175 -111 -197 -156 -23 -43 -151 -230 -216
-314 -27 -35 -58 -83 -69 -107 -22 -51 -34 -131 -24 -168 6 -24 9 -25 29 -15
12 7 47 31 78 55 31 24 69 49 83 56 15 6 66 64 115 127 216 287 210 280 249
291 70 19 252 34 264 22 15 -15 -7 -41 -52 -59 -42 -18 -86 -58 -107 -96 -8
-16 -49 -68 -92 -115 -197 -222 -321 -412 -352 -537 -6 -28 -36 -99 -65 -160
-32 -66 -60 -140 -69 -185 -13 -63 -21 -79 -48 -102 l-32 -27 -3 -159 -3 -160
108 5 c77 3 121 1 154 -10 32 -10 52 -11 64 -4 9 5 35 47 56 92 62 135 131
196 183 162 18 -12 26 -31 35 -79 15 -85 58 -168 99 -192 38 -21 105 -25 239
-12 l92 9 7 -28 c4 -16 1 -92 -6 -169 -9 -105 -9 -152 -1 -181 6 -22 11 -72
11 -112 0 -59 3 -73 18 -77 30 -9 337 -26 362 -19 43 10 61 35 132 180 73 151
107 193 159 193 16 0 29 -2 29 -4 0 -2 -12 -27 -26 -54 -33 -65 -45 -205 -20
-237 15 -19 17 -18 78 50 104 114 261 263 297 281 33 16 132 17 147 1 4 -3
-11 -28 -33 -54 -48 -58 -73 -104 -73 -135 0 -13 -15 -48 -34 -77 -44 -67 -52
-99 -31 -120 21 -21 327 -27 637 -12 309 15 634 29 958 41 151 5 285 13 298
16 43 12 28 29 -80 93 -51 30 -78 67 -78 107 0 33 64 170 96 206 18 19 81 24
117 9 16 -6 16 -9 -8 -31 -15 -14 -33 -36 -40 -50 -18 -35 -27 -126 -18 -185
12 -72 31 -71 108 10 l65 66 14 -33 c8 -18 20 -48 27 -67 13 -35 87 -91 120
-91 9 0 33 14 54 30 21 17 47 30 59 30 49 1 217 103 199 121 -5 5 -38 13 -73
18 -36 5 -83 16 -105 25 -43 18 -95 63 -95 81 0 11 41 55 51 55 3 0 29 -18 59
-40 68 -51 101 -57 176 -31 70 23 219 36 284 24 44 -8 46 -10 62 -62 10 -29
22 -58 27 -65 5 -6 17 -45 25 -86 9 -40 27 -91 41 -112 44 -67 85 -43 105 62
17 89 43 95 53 11 8 -64 31 -109 63 -121 28 -11 322 -14 348 -4 18 7 22 59 6
69 -21 13 -8 44 51 120 33 44 65 81 69 83 14 5 22 -75 18 -178 l-3 -95 85 -7
c113 -8 535 -10 594 -2 25 4 46 11 46 15 0 5 -48 36 -106 70 -131 77 -137 87
-101 174 15 36 27 74 27 84 0 19 184 181 207 181 22 0 36 -40 29 -84 -4 -22
-27 -81 -52 -131 -56 -112 -64 -155 -36 -183 12 -12 44 -29 73 -39 29 -10 74
-38 102 -63 44 -40 56 -45 94 -44 27 1 51 8 61 18 16 16 13 21 -55 84 l-73 68
0 57 c0 66 29 149 89 258 70 129 91 144 69 50 -17 -77 -7 -81 99 -33 109 49
151 58 177 39 17 -12 19 -26 18 -112 -1 -53 -7 -126 -13 -161 -10 -59 -17 -71
-74 -133 -65 -71 -84 -106 -67 -123 6 -6 58 -8 126 -6 158 4 158 4 167 175 9
155 31 224 89 277 39 35 90 66 109 66 6 0 16 -20 22 -45 9 -36 17 -46 38 -51
74 -16 176 -46 199 -58 15 -8 26 -23 27 -37 9 -136 19 -228 27 -249 13 -35 48
-70 70 -70 16 0 18 9 18 70 0 63 3 73 29 102 39 44 50 32 71 -74 l16 -83 74
-8 c41 -4 145 -6 230 -5 l155 3 0 59 0 60 80 69 c216 187 429 351 447 344 14
-5 109 -251 133 -344 8 -31 15 -83 15 -115 0 -54 2 -59 26 -68 34 -13 319 -13
367 1 38 10 38 11 21 31 -10 11 -56 41 -103 66 -91 51 -141 100 -160 159 -16
50 -34 359 -26 450 6 67 9 75 38 95 18 12 82 70 143 128 126 120 227 200 254
200 22 0 63 -53 58 -76 -2 -9 -38 -35 -81 -58 -83 -44 -247 -160 -247 -174 0
-5 17 -12 38 -16 64 -10 331 -7 399 6 114 21 114 22 -114 -257 -91 -111 -113
-143 -113 -169 0 -56 29 -290 40 -329 14 -48 45 -79 73 -75 26 4 35 32 36 114
2 113 66 265 161 384 29 36 57 75 63 88 7 15 18 22 31 20 18 -3 32 -34 85
-188 63 -180 65 -188 65 -289 1 -102 2 -104 29 -125 27 -20 41 -21 212 -21
192 0 213 4 201 42 -7 23 -74 63 -105 63 -30 0 -88 31 -135 72 l-40 34 -8 265
c-5 145 -7 288 -6 318 l3 54 61 23 c56 21 63 21 90 8 16 -8 36 -22 44 -31 13
-13 13 -16 -3 -26 -133 -84 -142 -97 -68 -97 58 0 91 -23 91 -65 0 -29 19 -32
99 -13 50 11 52 11 90 -20 47 -38 50 -38 126 -12 70 24 165 37 165 23 0 -14
-93 -144 -123 -172 -14 -13 -47 -37 -74 -55 -57 -37 -72 -71 -54 -121 8 -23
10 -55 5 -95 -10 -89 27 -172 87 -193 30 -10 41 10 50 92 10 91 36 175 69 220
22 32 146 99 189 103 23 3 27 -3 41 -58 9 -34 27 -85 39 -113 12 -29 31 -82
42 -119 12 -37 26 -73 32 -81 19 -22 81 -7 129 32 73 60 207 113 228 91 4 -5
4 -36 -1 -69 -18 -109 -43 -101 348 -107 199 -3 342 -2 348 4 6 5 -26 43 -88
103 l-98 95 -2 182 c-3 239 1 251 103 348 47 45 90 97 107 130 45 86 194 310
202 305 5 -2 59 -78 121 -167 63 -90 117 -167 122 -173 4 -5 8 535 8 1200 l-1
1210 -69 48 c-39 26 -70 53 -70 61 0 7 18 21 40 31 22 10 40 22 40 27 0 22
-220 -3 -287 -32 -26 -11 -48 -30 -58 -49 -18 -35 -91 -75 -295 -161 -151 -64
-296 -135 -306 -151 -5 -9 5 -11 37 -7 46 6 162 53 401 164 79 36 155 69 171
71 15 3 57 2 94 -2 77 -8 82 -13 187 -156 104 -141 107 -154 42 -163 -82 -13
-183 -125 -212 -235 -8 -33 -28 -89 -44 -124 -34 -76 -56 -159 -65 -250 l-7
-67 -50 0 c-27 0 -58 5 -68 10 -24 13 -99 140 -116 196 -25 83 25 167 119 202
61 23 84 50 95 112 18 99 -23 192 -93 211 -62 17 -169 8 -197 -18 -14 -12 -48
-25 -87 -32 -83 -14 -93 -24 -58 -57 15 -13 27 -29 27 -34 0 -5 -17 -18 -37
-29 l-38 -19 40 -17 c32 -15 36 -19 20 -22 -36 -8 -99 -31 -187 -67 -48 -20
-94 -36 -102 -36 -11 0 -16 18 -21 68 -10 94 -42 265 -65 342 -13 43 -30 75
-50 95 -16 16 -30 36 -30 46 0 9 -7 22 -15 29 -9 7 -15 29 -15 51 0 48 -6 45
250 137 251 91 364 138 385 162 41 45 -22 31 -343 -75 -368 -121 -541 -173
-592 -177 -32 -3 -35 -1 -42 32 -35 163 -48 236 -48 268 0 21 -6 46 -12 55
-18 25 -130 69 -143 56 -5 -5 -15 -40 -20 -77 -10 -62 -12 -67 -34 -64 -29 4
-27 1 55 -100 69 -84 87 -129 82 -198 l-3 -44 -72 -31 c-40 -16 -77 -35 -84
-42 -20 -20 1 -33 52 -33 27 0 49 -3 49 -7 0 -3 -12 -22 -27 -42 -68 -90 -143
-167 -222 -225 -47 -35 -99 -78 -116 -95 -16 -17 -50 -38 -75 -45 -25 -8 -65
-23 -90 -35 -90 -40 -234 -49 -247 -14 -8 22 7 32 78 51 76 20 76 21 71 174
l-3 99 -85 39 c-46 21 -84 42 -84 45 0 4 8 19 18 33 37 53 37 54 1 50 -32 -3
-34 -1 -37 30 -2 22 5 48 23 78 14 24 24 48 21 53 -12 19 -48 19 -68 -1 -16
-16 -22 -18 -29 -7 -5 8 -9 18 -9 22 0 24 -19 -9 -25 -43 -7 -40 -18 -51 -29
-27 -3 6 -4 -35 -1 -93 3 -58 2 -110 -3 -116 -21 -32 -88 -45 -98 -19 -4 8
-14 15 -24 15 -14 0 -22 -13 -32 -47 -12 -45 -20 -52 -103 -108 -50 -33 -102
-72 -117 -87 -29 -30 -99 -53 -134 -44 -31 8 -30 13 5 67 59 88 142 179 195
213 71 45 419 427 403 442 -11 11 -57 -30 -202 -182 -82 -87 -172 -172 -200
-190 -57 -36 -128 -109 -243 -252 -44 -53 -87 -103 -96 -111 -23 -19 -62 -5
-84 31 -15 25 -15 30 1 63 31 65 14 129 -49 184 -62 55 -178 48 -205 -12 -7
-15 -23 -27 -38 -30 -16 -4 -32 -16 -39 -31 -11 -25 -36 -35 -46 -18 -2 4 13
55 35 112 50 132 69 220 69 320 0 96 -17 124 -75 124 -30 0 -44 -7 -67 -33
-29 -33 -30 -36 -22 -95 4 -34 8 -77 7 -97 -1 -40 -50 -145 -82 -173 -20 -18
-22 -18 -39 -3 -36 33 -151 16 -191 -27 l-23 -25 21 -62 c11 -35 21 -87 21
-116 0 -53 -1 -54 -37 -69 -42 -18 -143 -31 -143 -19 0 5 8 17 17 27 26 29 5
40 -59 30 l-55 -8 -10 87 c-11 93 -29 134 -66 148 -12 5 -48 19 -80 31 -52 20
-60 21 -75 7 -9 -8 -39 -17 -66 -20 -27 -2 -52 -11 -57 -18 -15 -24 -28 -81
-35 -161 l-7 -77 38 -18 c61 -29 75 -103 19 -103 -14 0 -37 -9 -51 -20 -14
-11 -36 -20 -50 -20 -16 0 -51 -26 -112 -85 l-88 -85 -11 61 c-22 119 -110
274 -179 316 -48 29 -106 30 -133 3 -29 -29 -25 -51 16 -91 20 -18 43 -47 51
-64 21 -40 43 -122 43 -162 0 -28 -4 -33 -23 -33 -28 0 -93 44 -159 108 -50
48 -58 71 -33 92 8 7 15 29 15 49 1 20 7 47 15 61 8 14 14 34 15 46 0 21 -102
179 -148 226 -45 49 -122 71 -244 70 -87 0 -109 2 -121 16 -21 25 -67 114 -67
132 0 8 16 46 35 84 23 47 32 73 25 80 -5 5 -10 20 -10 33 0 16 -8 27 -25 33
-14 5 -25 15 -25 21 0 7 -9 5 -25 -5 -24 -16 -25 -15 -31 9 -13 51 -30 24 -36
-55 -2 -22 -8 -35 -17 -35 -19 0 -131 162 -131 190 0 13 7 42 15 66 23 64 76
277 145 584 34 149 72 314 86 367 28 113 29 118 10 118 -10 0 -41 -109 -111
-397 -152 -627 -151 -623 -201 -623 -40 0 -9 -44 -504 724 -113 174 -225 339
-250 365 -41 43 -52 48 -112 58 -84 14 -126 34 -207 100 l-66 53 -81 0 c-48 0
-87 5 -97 13 -13 10 -17 36 -21 142 -3 93 -10 153 -26 210 -35 125 -35 136 1
274 28 108 31 133 21 155 -6 14 -47 49 -94 79 -55 36 -110 84 -162 141 -77 85
-80 88 -115 82 -118 -19 -115 -19 -179 13 -65 33 -82 37 -82 21z m1270 -1941
c33 -49 64 -81 181 -188 31 -28 83 -88 115 -133 124 -171 169 -222 230 -257
106 -62 124 -79 124 -114 0 -18 -11 -84 -24 -147 -51 -241 -57 -260 -82 -260
-9 0 -48 11 -86 25 -38 14 -88 25 -112 25 -31 0 -48 6 -63 23 -37 41 -167 261
-229 387 -34 69 -100 192 -148 274 -90 158 -103 187 -131 304 -21 88 -21 88
75 97 60 6 97 10 110 14 3 0 21 -22 40 -50z m799 -829 c61 -99 63 -132 16
-212 -93 -155 -174 -241 -189 -202 -8 21 80 454 99 484 11 18 31 -1 74 -70z
m4875 -205 c-22 -34 -13 -99 18 -132 13 -14 41 -34 62 -45 l39 -20 -7 -196
c-4 -108 -8 -198 -10 -199 -9 -9 -125 -19 -145 -12 -14 4 -50 17 -79 27 l-54
19 30 34 c47 55 55 77 54 163 -1 102 -13 136 -47 136 -14 0 -28 7 -32 16 -10
27 14 154 33 175 18 20 106 58 137 58 16 1 16 -1 1 -24z m-4666 -106 c18 -30
37 -71 43 -92 5 -21 23 -59 40 -84 16 -26 29 -52 29 -57 0 -42 24 -86 60 -111
67 -47 45 -69 -43 -44 -26 7 -42 19 -49 37 -18 41 -79 121 -108 139 -17 12
-43 16 -82 15 -32 -2 -58 0 -58 3 0 10 69 174 91 217 11 22 25 38 32 35 7 -2
27 -28 45 -58z m-1183 -219 c3 -5 -12 -21 -34 -34 -54 -34 -56 -42 -27 -77 48
-57 21 -124 -49 -121 -73 3 -97 59 -51 121 13 18 30 47 37 64 7 18 17 38 22
45 11 14 93 16 102 2z m4492 -74 l28 -24 -44 -41 c-24 -22 -64 -48 -90 -58
-25 -9 -72 -36 -104 -60 -94 -68 -174 -114 -212 -120 -53 -9 -46 20 13 48 82
39 164 100 256 191 49 48 98 88 107 88 10 0 31 -11 46 -24z m-7484 -34 c29
-13 47 -27 45 -34 -3 -7 -68 -38 -146 -69 -78 -32 -156 -69 -173 -84 -24 -19
-39 -25 -58 -20 -37 8 -151 129 -151 159 0 23 7 26 93 45 136 30 134 30 242
27 77 -2 111 -8 148 -24z m4116 -17 c55 -63 54 -131 -1 -78 -26 24 -68 91 -68
108 0 18 43 -1 69 -30z m4281 -5 c17 -31 4 -55 -50 -96 -58 -44 -88 -84 -165
-224 -32 -58 -75 -127 -96 -155 -50 -66 -97 -167 -104 -224 -11 -84 -14 -90
-51 -106 -66 -27 -188 -127 -345 -282 -85 -84 -163 -153 -171 -153 -20 0 -74
53 -83 81 -5 15 2 32 22 57 39 49 55 81 87 180 15 45 29 82 31 82 2 0 16 -5
30 -12 19 -9 28 -9 37 0 7 7 25 12 40 12 32 0 68 31 68 58 0 10 -11 29 -25 42
-14 13 -25 30 -25 37 0 8 25 68 55 134 30 66 58 131 61 145 7 29 32 44 72 44
41 0 136 34 196 71 78 48 150 107 274 223 62 58 117 106 122 106 5 0 14 -9 20
-20z m-4401 -243 c10 -27 -1 -66 -35 -124 -37 -64 -48 -46 -35 61 6 48 13 91
16 96 9 15 45 -7 54 -33z m1991 -98 c0 -6 -13 -27 -30 -46 -16 -18 -30 -42
-30 -53 0 -37 -108 -135 -128 -116 -17 18 56 175 96 207 27 20 92 26 92 8z
m860 -16 c0 -4 -11 -18 -25 -33 -27 -28 -85 -161 -85 -195 0 -27 34 -58 140
-129 47 -30 95 -65 108 -75 l23 -20 -39 -53 c-56 -76 -207 -215 -290 -268 -85
-54 -96 -70 -47 -70 29 0 35 -4 35 -21 0 -22 -69 -99 -89 -99 -13 0 -31 34
-71 136 -18 44 -44 94 -58 113 -44 55 -72 95 -72 103 0 4 11 15 25 24 22 15
33 15 84 4 50 -10 71 -10 142 5 98 19 159 21 188 5 27 -14 41 -6 41 24 0 12
11 32 25 44 16 14 25 32 25 51 0 35 -22 41 -110 28 -142 -19 -209 -20 -235 -3
-15 10 -25 26 -25 39 1 12 42 96 93 187 85 152 96 167 137 188 44 22 80 29 80
15z m-2195 -16 c46 -27 125 -92 125 -102 0 -6 -13 -21 -28 -32 -35 -26 -147
-83 -163 -83 -16 0 -1 178 17 208 16 25 21 26 49 9z m-3615 -62 c-40 -42 -108
-90 -116 -83 -9 10 28 88 49 103 12 8 39 15 61 15 l40 0 -34 -35z m8126 4 c8
-14 -44 -69 -66 -69 -38 0 -54 51 -22 69 23 14 79 14 88 0z m-390 -18 c18 -11
47 -47 68 -85 20 -36 46 -72 57 -80 26 -18 15 -43 -36 -77 -25 -17 -45 -44
-66 -89 -60 -132 -59 -130 -190 -212 -162 -101 -172 -105 -204 -84 -14 9 -25
26 -25 39 0 24 4 33 78 161 28 49 63 126 78 170 48 145 100 232 157 260 41 20
46 20 83 -3z m-4971 -52 c10 -15 -1 -23 -20 -15 -9 3 -13 10 -10 16 8 13 22
13 30 -1z m3269 -24 c6 -16 -9 -65 -20 -65 -13 0 -64 35 -64 44 0 29 73 48 84
21z m-7732 -61 l27 -6 -39 -47 c-43 -51 -109 -171 -140 -255 -12 -30 -32 -71
-45 -91 -14 -19 -40 -73 -59 -118 -60 -144 -127 -275 -143 -282 -27 -10 -47
21 -128 195 -90 191 -107 237 -100 259 3 9 28 33 54 53 57 43 134 139 168 210
13 27 35 61 50 75 l25 26 152 -7 c83 -4 163 -9 178 -12z m5906 -46 c3 -41 0
-49 -22 -63 -42 -28 -84 -25 -103 7 -16 26 -16 28 2 49 25 27 85 59 105 56 10
-1 16 -17 18 -49z m-2548 26 c0 -28 -29 -79 -76 -134 -24 -28 -44 -55 -44 -60
0 -4 -12 -11 -27 -14 -14 -4 -45 -20 -68 -36 -22 -15 -50 -30 -60 -32 -17 -2
-20 3 -19 32 1 53 45 113 109 152 31 18 79 50 108 70 57 41 77 46 77 22z
m-2525 -4 c3 -5 -6 -20 -20 -33 -15 -12 -45 -53 -68 -91 -23 -38 -46 -69 -52
-70 -12 -1 -19 66 -10 111 9 50 58 93 105 93 21 0 42 -4 45 -10z m4711 -22
c-4 -18 -11 -118 -16 -223 l-9 -190 -138 -135 c-156 -153 -260 -243 -276 -237
-6 2 -31 63 -55 137 l-45 133 18 51 c37 104 73 165 108 180 41 17 129 84 243
183 171 150 181 156 170 101z m4980 -175 c-4 -69 -12 -135 -17 -145 -12 -23
-32 -23 -105 2 -32 12 -68 18 -80 16 -28 -7 -114 -84 -114 -102 0 -22 33 -17
70 11 37 27 80 32 142 15 75 -21 61 -43 -66 -103 -114 -55 -149 -84 -187 -158
-33 -67 -58 -76 -86 -32 -26 40 -23 191 6 303 36 136 41 149 67 163 13 7 32
28 42 47 10 21 32 42 54 53 37 18 198 54 252 56 l29 1 -7 -127z m-6592 45 c21
-30 20 -54 -3 -87 -11 -15 -31 -51 -45 -81 -14 -30 -45 -83 -68 -116 -24 -34
-51 -76 -60 -93 -21 -38 -49 -40 -77 -5 -27 35 -27 89 0 134 52 84 210 270
230 270 4 0 15 -10 23 -22z m1823 -65 c38 -55 34 -70 -32 -106 -52 -29 -52
-30 -35 69 19 102 21 104 67 37z m630 -28 c-3 -41 -16 -107 -29 -147 l-23 -73
-3 59 c-4 80 29 236 50 236 7 0 9 -23 5 -75z m-983 -492 c-9 -16 -48 -62 -84
-104 -72 -81 -110 -152 -161 -299 -27 -78 -34 -90 -44 -76 -18 24 -26 143 -15
216 8 51 16 70 38 88 15 13 65 56 111 95 100 86 130 107 155 107 18 0 18 -1 0
-27z m1361 -727 c27 -19 14 -44 -70 -134 -74 -79 -108 -102 -154 -102 -41 0
-52 -19 -96 -169 -57 -195 -64 -202 -159 -162 l-45 20 31 93 c32 93 45 112
118 167 20 15 51 62 85 130 30 58 61 115 69 125 30 38 183 60 221 32z m-6972
-135 c48 -8 48 -21 3 -36 -20 -7 -53 -30 -74 -50 -20 -21 -57 -45 -81 -54 -65
-24 -79 -49 -96 -180 -13 -99 -32 -161 -51 -161 -14 0 -62 31 -83 54 -28 30
-32 1 33 276 20 85 42 158 49 163 12 8 232 0 300 -12z m1508 -1 c59 -32 66
-190 15 -325 -15 -38 -32 -85 -37 -102 -6 -18 -17 -33 -25 -33 -23 0 -66 25
-93 54 l-25 26 19 73 c10 39 27 86 36 102 10 17 25 61 34 100 14 64 37 115 51
115 3 0 14 -5 25 -10z m8272 -68 c9 -10 20 -33 23 -50 4 -18 8 -32 10 -32 3 0
35 15 72 34 88 45 170 68 224 64 39 -3 43 -5 40 -28 -5 -43 -110 -210 -140
-221 -44 -17 -233 -7 -265 14 -26 17 -27 20 -27 121 0 56 3 106 7 109 12 13
40 7 56 -11z m-5368 -138 c12 -13 15 -29 11 -68 -3 -28 -8 -81 -12 -119 -9
-100 -42 -108 -133 -31 -29 24 -31 30 -31 96 0 66 2 72 34 104 27 27 42 34 74
34 24 0 47 -7 57 -16z m-2465 -58 c0 -50 -14 -67 -29 -37 -14 26 -14 54 1 69
21 21 28 13 28 -32z m-781 -13 c-4 -28 -3 -71 3 -103 12 -63 6 -105 -17 -114
-17 -6 -122 27 -139 44 -6 6 -7 19 0 35 9 25 142 185 154 185 4 0 3 -21 -1
-47z m-360 -28 l42 -45 -27 -48 c-53 -93 -52 -92 -93 -92 -42 0 -91 38 -91 70
0 10 19 42 43 70 23 29 48 61 56 71 7 11 17 19 21 19 4 0 26 -20 49 -45z
m3021 15 c11 -11 20 -27 20 -35 0 -30 -29 -85 -45 -85 -38 0 -90 97 -70 129
11 19 73 13 95 -9z m-2080 -32 c37 -62 16 -137 -34 -122 -30 9 -66 44 -66 65
0 19 56 89 71 89 5 0 18 -15 29 -32z m8564 6 c12 -4 16 -20 16 -54 0 -104 -25
-144 -76 -121 -20 9 -24 18 -24 56 0 90 34 138 84 119z"/>
<path d="M178 2610 c-9 -6 -26 -39 -38 -74 -23 -71 -38 -88 -92 -105 -42 -14
-48 -25 -48 -94 0 -98 24 -99 127 -3 66 61 100 125 110 205 4 36 1 51 -12 64
-19 19 -24 20 -47 7z"/>
<path d="M12766 250 c-20 -51 -21 -153 -2 -169 12 -10 17 -8 25 8 13 24 15
201 2 201 -5 0 -16 -18 -25 -40z"/>
</g>
</svg>
